<?xml version="1.0" encoding="utf-8"?>
<svg xmlns="http://www.w3.org/2000/svg" xmlns:xlink="http://www.w3.org/1999/xlink" width="600" height="400" viewBox="0 0 2400 1600">
<defs>
  <clipPath id="clip900">
    <rect x="0" y="0" width="2400" height="1600"/>
  </clipPath>
</defs>
<path clip-path="url(#clip900)" d="M0 1600 L2400 1600 L2400 0 L0 0  Z" fill="#ffffff" fill-rule="evenodd" fill-opacity="1"/>
<defs>
  <clipPath id="clip901">
    <rect x="480" y="0" width="1681" height="1600"/>
  </clipPath>
</defs>
<path clip-path="url(#clip900)" d="M175.445 1423.18 L1137.92 1423.18 L1137.92 123.472 L175.445 123.472  Z" fill="#ffffff" fill-rule="evenodd" fill-opacity="1"/>
<defs>
  <clipPath id="clip902">
    <rect x="175" y="123" width="963" height="1301"/>
  </clipPath>
</defs>
<polyline clip-path="url(#clip902)" style="stroke:#000000; stroke-linecap:round; stroke-linejoin:round; stroke-width:2; stroke-opacity:0.1; fill:none" points="179.403,1423.18 179.403,123.472 "/>
<polyline clip-path="url(#clip902)" style="stroke:#000000; stroke-linecap:round; stroke-linejoin:round; stroke-width:2; stroke-opacity:0.1; fill:none" points="412.222,1423.18 412.222,123.472 "/>
<polyline clip-path="url(#clip902)" style="stroke:#000000; stroke-linecap:round; stroke-linejoin:round; stroke-width:2; stroke-opacity:0.1; fill:none" points="645.041,1423.18 645.041,123.472 "/>
<polyline clip-path="url(#clip902)" style="stroke:#000000; stroke-linecap:round; stroke-linejoin:round; stroke-width:2; stroke-opacity:0.1; fill:none" points="877.859,1423.18 877.859,123.472 "/>
<polyline clip-path="url(#clip902)" style="stroke:#000000; stroke-linecap:round; stroke-linejoin:round; stroke-width:2; stroke-opacity:0.1; fill:none" points="1110.68,1423.18 1110.68,123.472 "/>
<polyline clip-path="url(#clip900)" style="stroke:#000000; stroke-linecap:round; stroke-linejoin:round; stroke-width:4; stroke-opacity:1; fill:none" points="175.445,1423.18 1137.92,1423.18 "/>
<polyline clip-path="url(#clip900)" style="stroke:#000000; stroke-linecap:round; stroke-linejoin:round; stroke-width:4; stroke-opacity:1; fill:none" points="179.403,1423.18 179.403,1404.28 "/>
<polyline clip-path="url(#clip900)" style="stroke:#000000; stroke-linecap:round; stroke-linejoin:round; stroke-width:4; stroke-opacity:1; fill:none" points="412.222,1423.18 412.222,1404.28 "/>
<polyline clip-path="url(#clip900)" style="stroke:#000000; stroke-linecap:round; stroke-linejoin:round; stroke-width:4; stroke-opacity:1; fill:none" points="645.041,1423.18 645.041,1404.28 "/>
<polyline clip-path="url(#clip900)" style="stroke:#000000; stroke-linecap:round; stroke-linejoin:round; stroke-width:4; stroke-opacity:1; fill:none" points="877.859,1423.18 877.859,1404.28 "/>
<polyline clip-path="url(#clip900)" style="stroke:#000000; stroke-linecap:round; stroke-linejoin:round; stroke-width:4; stroke-opacity:1; fill:none" points="1110.68,1423.18 1110.68,1404.28 "/>
<path clip-path="url(#clip900)" d="M179.403 1454.1 Q175.792 1454.1 173.963 1457.66 Q172.158 1461.2 172.158 1468.33 Q172.158 1475.44 173.963 1479.01 Q175.792 1482.55 179.403 1482.55 Q183.037 1482.55 184.843 1479.01 Q186.672 1475.44 186.672 1468.33 Q186.672 1461.2 184.843 1457.66 Q183.037 1454.1 179.403 1454.1 M179.403 1450.39 Q185.213 1450.39 188.269 1455 Q191.348 1459.58 191.348 1468.33 Q191.348 1477.06 188.269 1481.67 Q185.213 1486.25 179.403 1486.25 Q173.593 1486.25 170.514 1481.67 Q167.459 1477.06 167.459 1468.33 Q167.459 1459.58 170.514 1455 Q173.593 1450.39 179.403 1450.39 Z" fill="#000000" fill-rule="nonzero" fill-opacity="1" /><path clip-path="url(#clip900)" d="M386.91 1481.64 L394.548 1481.64 L394.548 1455.28 L386.238 1456.95 L386.238 1452.69 L394.502 1451.02 L399.178 1451.02 L399.178 1481.64 L406.817 1481.64 L406.817 1485.58 L386.91 1485.58 L386.91 1481.64 Z" fill="#000000" fill-rule="nonzero" fill-opacity="1" /><path clip-path="url(#clip900)" d="M426.261 1454.1 Q422.65 1454.1 420.821 1457.66 Q419.016 1461.2 419.016 1468.33 Q419.016 1475.44 420.821 1479.01 Q422.65 1482.55 426.261 1482.55 Q429.895 1482.55 431.701 1479.01 Q433.53 1475.44 433.53 1468.33 Q433.53 1461.2 431.701 1457.66 Q429.895 1454.1 426.261 1454.1 M426.261 1450.39 Q432.071 1450.39 435.127 1455 Q438.206 1459.58 438.206 1468.33 Q438.206 1477.06 435.127 1481.67 Q432.071 1486.25 426.261 1486.25 Q420.451 1486.25 417.372 1481.67 Q414.317 1477.06 414.317 1468.33 Q414.317 1459.58 417.372 1455 Q420.451 1450.39 426.261 1450.39 Z" fill="#000000" fill-rule="nonzero" fill-opacity="1" /><path clip-path="url(#clip900)" d="M623.814 1481.64 L640.133 1481.64 L640.133 1485.58 L618.189 1485.58 L618.189 1481.64 Q620.851 1478.89 625.434 1474.26 Q630.041 1469.61 631.221 1468.27 Q633.467 1465.74 634.346 1464.01 Q635.249 1462.25 635.249 1460.56 Q635.249 1457.8 633.305 1456.07 Q631.383 1454.33 628.282 1454.33 Q626.082 1454.33 623.629 1455.09 Q621.198 1455.86 618.42 1457.41 L618.42 1452.69 Q621.245 1451.55 623.698 1450.97 Q626.152 1450.39 628.189 1450.39 Q633.559 1450.39 636.754 1453.08 Q639.948 1455.77 639.948 1460.26 Q639.948 1462.39 639.138 1464.31 Q638.351 1466.2 636.244 1468.8 Q635.666 1469.47 632.564 1472.69 Q629.462 1475.88 623.814 1481.64 Z" fill="#000000" fill-rule="nonzero" fill-opacity="1" /><path clip-path="url(#clip900)" d="M659.948 1454.1 Q656.337 1454.1 654.508 1457.66 Q652.703 1461.2 652.703 1468.33 Q652.703 1475.44 654.508 1479.01 Q656.337 1482.55 659.948 1482.55 Q663.582 1482.55 665.388 1479.01 Q667.216 1475.44 667.216 1468.33 Q667.216 1461.2 665.388 1457.66 Q663.582 1454.1 659.948 1454.1 M659.948 1450.39 Q665.758 1450.39 668.814 1455 Q671.892 1459.58 671.892 1468.33 Q671.892 1477.06 668.814 1481.67 Q665.758 1486.25 659.948 1486.25 Q654.138 1486.25 651.059 1481.67 Q648.004 1477.06 648.004 1468.33 Q648.004 1459.58 651.059 1455 Q654.138 1450.39 659.948 1450.39 Z" fill="#000000" fill-rule="nonzero" fill-opacity="1" /><path clip-path="url(#clip900)" d="M866.702 1466.95 Q870.059 1467.66 871.934 1469.93 Q873.832 1472.2 873.832 1475.53 Q873.832 1480.65 870.313 1483.45 Q866.795 1486.25 860.313 1486.25 Q858.137 1486.25 855.823 1485.81 Q853.531 1485.39 851.077 1484.54 L851.077 1480.02 Q853.022 1481.16 855.336 1481.74 Q857.651 1482.32 860.174 1482.32 Q864.572 1482.32 866.864 1480.58 Q869.179 1478.84 869.179 1475.53 Q869.179 1472.48 867.026 1470.77 Q864.897 1469.03 861.077 1469.03 L857.049 1469.03 L857.049 1465.19 L861.262 1465.19 Q864.711 1465.19 866.54 1463.82 Q868.369 1462.43 868.369 1459.84 Q868.369 1457.18 866.471 1455.77 Q864.596 1454.33 861.077 1454.33 Q859.156 1454.33 856.957 1454.75 Q854.758 1455.16 852.119 1456.04 L852.119 1451.88 Q854.781 1451.14 857.096 1450.77 Q859.434 1450.39 861.494 1450.39 Q866.818 1450.39 869.92 1452.83 Q873.022 1455.23 873.022 1459.35 Q873.022 1462.22 871.378 1464.21 Q869.734 1466.18 866.702 1466.95 Z" fill="#000000" fill-rule="nonzero" fill-opacity="1" /><path clip-path="url(#clip900)" d="M892.697 1454.1 Q889.086 1454.1 887.258 1457.66 Q885.452 1461.2 885.452 1468.33 Q885.452 1475.44 887.258 1479.01 Q889.086 1482.55 892.697 1482.55 Q896.332 1482.55 898.137 1479.01 Q899.966 1475.44 899.966 1468.33 Q899.966 1461.2 898.137 1457.66 Q896.332 1454.1 892.697 1454.1 M892.697 1450.39 Q898.507 1450.39 901.563 1455 Q904.642 1459.58 904.642 1468.33 Q904.642 1477.06 901.563 1481.67 Q898.507 1486.25 892.697 1486.25 Q886.887 1486.25 883.808 1481.67 Q880.753 1477.06 880.753 1468.33 Q880.753 1459.58 883.808 1455 Q886.887 1450.39 892.697 1450.39 Z" fill="#000000" fill-rule="nonzero" fill-opacity="1" /><path clip-path="url(#clip900)" d="M1098.85 1455.09 L1087.04 1473.54 L1098.85 1473.54 L1098.85 1455.09 M1097.62 1451.02 L1103.5 1451.02 L1103.5 1473.54 L1108.43 1473.54 L1108.43 1477.43 L1103.5 1477.43 L1103.5 1485.58 L1098.85 1485.58 L1098.85 1477.43 L1083.25 1477.43 L1083.25 1472.92 L1097.62 1451.02 Z" fill="#000000" fill-rule="nonzero" fill-opacity="1" /><path clip-path="url(#clip900)" d="M1126.16 1454.1 Q1122.55 1454.1 1120.72 1457.66 Q1118.92 1461.2 1118.92 1468.33 Q1118.92 1475.44 1120.72 1479.01 Q1122.55 1482.55 1126.16 1482.55 Q1129.8 1482.55 1131.6 1479.01 Q1133.43 1475.44 1133.43 1468.33 Q1133.43 1461.2 1131.6 1457.66 Q1129.8 1454.1 1126.16 1454.1 M1126.16 1450.39 Q1131.97 1450.39 1135.03 1455 Q1138.11 1459.58 1138.11 1468.33 Q1138.11 1477.06 1135.03 1481.67 Q1131.97 1486.25 1126.16 1486.25 Q1120.35 1486.25 1117.28 1481.67 Q1114.22 1477.06 1114.22 1468.33 Q1114.22 1459.58 1117.28 1455 Q1120.35 1450.39 1126.16 1450.39 Z" fill="#000000" fill-rule="nonzero" fill-opacity="1" /><path clip-path="url(#clip900)" d="M576.872 1548.76 L576.872 1551.62 L549.945 1551.62 Q550.327 1557.67 553.573 1560.85 Q556.851 1564 562.676 1564 Q566.05 1564 569.201 1563.17 Q572.384 1562.35 575.503 1560.69 L575.503 1566.23 Q572.352 1567.57 569.042 1568.27 Q565.732 1568.97 562.326 1568.97 Q553.796 1568.97 548.799 1564 Q543.834 1559.04 543.834 1550.57 Q543.834 1541.82 548.544 1536.69 Q553.287 1531.54 561.307 1531.54 Q568.501 1531.54 572.67 1536.18 Q576.872 1540.8 576.872 1548.76 M571.015 1547.04 Q570.951 1542.23 568.31 1539.37 Q565.7 1536.5 561.371 1536.5 Q556.469 1536.5 553.509 1539.27 Q550.581 1542.04 550.136 1547.07 L571.015 1547.04 Z" fill="#000000" fill-rule="nonzero" fill-opacity="1" /><path clip-path="url(#clip900)" d="M592.149 1562.7 L592.149 1581.6 L586.261 1581.6 L586.261 1532.4 L592.149 1532.4 L592.149 1537.81 Q593.995 1534.62 596.796 1533.1 Q599.629 1531.54 603.544 1531.54 Q610.037 1531.54 614.079 1536.69 Q618.153 1541.85 618.153 1550.25 Q618.153 1558.65 614.079 1563.81 Q610.037 1568.97 603.544 1568.97 Q599.629 1568.97 596.796 1567.44 Q593.995 1565.88 592.149 1562.7 M612.074 1550.25 Q612.074 1543.79 609.4 1540.13 Q606.759 1536.44 602.112 1536.44 Q597.465 1536.44 594.791 1540.13 Q592.149 1543.79 592.149 1550.25 Q592.149 1556.71 594.791 1560.4 Q597.465 1564.07 602.112 1564.07 Q606.759 1564.07 609.4 1560.4 Q612.074 1556.71 612.074 1550.25 Z" fill="#000000" fill-rule="nonzero" fill-opacity="1" /><path clip-path="url(#clip900)" d="M641.674 1536.5 Q636.964 1536.5 634.227 1540.19 Q631.489 1543.85 631.489 1550.25 Q631.489 1556.65 634.195 1560.34 Q636.932 1564 641.674 1564 Q646.353 1564 649.091 1560.31 Q651.828 1556.62 651.828 1550.25 Q651.828 1543.92 649.091 1540.23 Q646.353 1536.5 641.674 1536.5 M641.674 1531.54 Q649.313 1531.54 653.674 1536.5 Q658.034 1541.47 658.034 1550.25 Q658.034 1559 653.674 1564 Q649.313 1568.97 641.674 1568.97 Q634.004 1568.97 629.643 1564 Q625.315 1559 625.315 1550.25 Q625.315 1541.47 629.643 1536.5 Q634.004 1531.54 641.674 1531.54 Z" fill="#000000" fill-rule="nonzero" fill-opacity="1" /><path clip-path="url(#clip900)" d="M693.396 1533.76 L693.396 1539.24 Q690.913 1537.87 688.399 1537.2 Q685.916 1536.5 683.37 1536.5 Q677.673 1536.5 674.522 1540.13 Q671.37 1543.73 671.37 1550.25 Q671.37 1556.78 674.522 1560.4 Q677.673 1564 683.37 1564 Q685.916 1564 688.399 1563.33 Q690.913 1562.63 693.396 1561.26 L693.396 1566.68 Q690.945 1567.82 688.303 1568.39 Q685.693 1568.97 682.733 1568.97 Q674.681 1568.97 669.938 1563.91 Q665.196 1558.85 665.196 1550.25 Q665.196 1541.53 669.97 1536.53 Q674.776 1531.54 683.115 1531.54 Q685.821 1531.54 688.399 1532.11 Q690.977 1532.65 693.396 1533.76 Z" fill="#000000" fill-rule="nonzero" fill-opacity="1" /><path clip-path="url(#clip900)" d="M733.213 1546.53 L733.213 1568.04 L727.357 1568.04 L727.357 1546.72 Q727.357 1541.66 725.384 1539.14 Q723.41 1536.63 719.463 1536.63 Q714.721 1536.63 711.984 1539.65 Q709.246 1542.68 709.246 1547.9 L709.246 1568.04 L703.358 1568.04 L703.358 1518.52 L709.246 1518.52 L709.246 1537.93 Q711.347 1534.72 714.18 1533.13 Q717.044 1531.54 720.768 1531.54 Q726.911 1531.54 730.062 1535.36 Q733.213 1539.14 733.213 1546.53 Z" fill="#000000" fill-rule="nonzero" fill-opacity="1" /><path clip-path="url(#clip900)" d="M767.62 1533.45 L767.62 1538.98 Q765.137 1537.71 762.464 1537.07 Q759.79 1536.44 756.926 1536.44 Q752.565 1536.44 750.369 1537.77 Q748.205 1539.11 748.205 1541.79 Q748.205 1543.82 749.764 1545 Q751.324 1546.15 756.034 1547.2 L758.04 1547.64 Q764.278 1548.98 766.888 1551.43 Q769.53 1553.85 769.53 1558.21 Q769.53 1563.17 765.583 1566.07 Q761.668 1568.97 754.793 1568.97 Q751.929 1568.97 748.809 1568.39 Q745.722 1567.85 742.284 1566.74 L742.284 1560.69 Q745.531 1562.38 748.682 1563.24 Q751.833 1564.07 754.92 1564.07 Q759.058 1564.07 761.286 1562.66 Q763.514 1561.23 763.514 1558.65 Q763.514 1556.27 761.891 1554.99 Q760.299 1553.72 754.857 1552.54 L752.82 1552.07 Q747.377 1550.92 744.958 1548.56 Q742.539 1546.18 742.539 1542.04 Q742.539 1537.01 746.104 1534.27 Q749.669 1531.54 756.225 1531.54 Q759.472 1531.54 762.336 1532.01 Q765.201 1532.49 767.62 1533.45 Z" fill="#000000" fill-rule="nonzero" fill-opacity="1" /><polyline clip-path="url(#clip902)" style="stroke:#000000; stroke-linecap:round; stroke-linejoin:round; stroke-width:2; stroke-opacity:0.1; fill:none" points="175.445,1406.46 1137.92,1406.46 "/>
<polyline clip-path="url(#clip902)" style="stroke:#000000; stroke-linecap:round; stroke-linejoin:round; stroke-width:2; stroke-opacity:0.1; fill:none" points="175.445,1111.84 1137.92,1111.84 "/>
<polyline clip-path="url(#clip902)" style="stroke:#000000; stroke-linecap:round; stroke-linejoin:round; stroke-width:2; stroke-opacity:0.1; fill:none" points="175.445,817.229 1137.92,817.229 "/>
<polyline clip-path="url(#clip902)" style="stroke:#000000; stroke-linecap:round; stroke-linejoin:round; stroke-width:2; stroke-opacity:0.1; fill:none" points="175.445,522.613 1137.92,522.613 "/>
<polyline clip-path="url(#clip902)" style="stroke:#000000; stroke-linecap:round; stroke-linejoin:round; stroke-width:2; stroke-opacity:0.1; fill:none" points="175.445,227.997 1137.92,227.997 "/>
<polyline clip-path="url(#clip900)" style="stroke:#000000; stroke-linecap:round; stroke-linejoin:round; stroke-width:4; stroke-opacity:1; fill:none" points="175.445,1423.18 175.445,123.472 "/>
<polyline clip-path="url(#clip900)" style="stroke:#000000; stroke-linecap:round; stroke-linejoin:round; stroke-width:4; stroke-opacity:1; fill:none" points="175.445,1406.46 194.343,1406.46 "/>
<polyline clip-path="url(#clip900)" style="stroke:#000000; stroke-linecap:round; stroke-linejoin:round; stroke-width:4; stroke-opacity:1; fill:none" points="175.445,1111.84 194.343,1111.84 "/>
<polyline clip-path="url(#clip900)" style="stroke:#000000; stroke-linecap:round; stroke-linejoin:round; stroke-width:4; stroke-opacity:1; fill:none" points="175.445,817.229 194.343,817.229 "/>
<polyline clip-path="url(#clip900)" style="stroke:#000000; stroke-linecap:round; stroke-linejoin:round; stroke-width:4; stroke-opacity:1; fill:none" points="175.445,522.613 194.343,522.613 "/>
<polyline clip-path="url(#clip900)" style="stroke:#000000; stroke-linecap:round; stroke-linejoin:round; stroke-width:4; stroke-opacity:1; fill:none" points="175.445,227.997 194.343,227.997 "/>
<path clip-path="url(#clip900)" d="M127.501 1392.26 Q123.89 1392.26 122.061 1395.82 Q120.255 1399.37 120.255 1406.5 Q120.255 1413.6 122.061 1417.17 Q123.89 1420.71 127.501 1420.71 Q131.135 1420.71 132.941 1417.17 Q134.769 1413.6 134.769 1406.5 Q134.769 1399.37 132.941 1395.82 Q131.135 1392.26 127.501 1392.26 M127.501 1388.56 Q133.311 1388.56 136.367 1393.16 Q139.445 1397.75 139.445 1406.5 Q139.445 1415.22 136.367 1419.83 Q133.311 1424.41 127.501 1424.41 Q121.691 1424.41 118.612 1419.83 Q115.556 1415.22 115.556 1406.5 Q115.556 1397.75 118.612 1393.16 Q121.691 1388.56 127.501 1388.56 Z" fill="#000000" fill-rule="nonzero" fill-opacity="1" /><path clip-path="url(#clip900)" d="M123.126 1125.19 L139.445 1125.19 L139.445 1129.12 L117.501 1129.12 L117.501 1125.19 Q120.163 1122.43 124.746 1117.81 Q129.353 1113.15 130.533 1111.81 Q132.779 1109.29 133.658 1107.55 Q134.561 1105.79 134.561 1104.1 Q134.561 1101.35 132.617 1099.61 Q130.695 1097.87 127.593 1097.87 Q125.394 1097.87 122.941 1098.64 Q120.51 1099.4 117.732 1100.95 L117.732 1096.23 Q120.556 1095.1 123.01 1094.52 Q125.464 1093.94 127.501 1093.94 Q132.871 1093.94 136.066 1096.62 Q139.26 1099.31 139.26 1103.8 Q139.26 1105.93 138.45 1107.85 Q137.663 1109.75 135.556 1112.34 Q134.978 1113.01 131.876 1116.23 Q128.774 1119.43 123.126 1125.19 Z" fill="#000000" fill-rule="nonzero" fill-opacity="1" /><path clip-path="url(#clip900)" d="M129.862 804.023 L118.056 822.472 L129.862 822.472 L129.862 804.023 M128.635 799.949 L134.515 799.949 L134.515 822.472 L139.445 822.472 L139.445 826.36 L134.515 826.36 L134.515 834.509 L129.862 834.509 L129.862 826.36 L114.26 826.36 L114.26 821.847 L128.635 799.949 Z" fill="#000000" fill-rule="nonzero" fill-opacity="1" /><path clip-path="url(#clip900)" d="M127.917 520.749 Q124.769 520.749 122.918 522.902 Q121.089 525.055 121.089 528.805 Q121.089 532.531 122.918 534.707 Q124.769 536.86 127.917 536.86 Q131.066 536.86 132.894 534.707 Q134.746 532.531 134.746 528.805 Q134.746 525.055 132.894 522.902 Q131.066 520.749 127.917 520.749 M137.2 506.096 L137.2 510.356 Q135.441 509.522 133.635 509.083 Q131.853 508.643 130.093 508.643 Q125.464 508.643 123.01 511.768 Q120.58 514.893 120.232 521.212 Q121.598 519.198 123.658 518.133 Q125.718 517.045 128.195 517.045 Q133.404 517.045 136.413 520.217 Q139.445 523.365 139.445 528.805 Q139.445 534.129 136.297 537.346 Q133.149 540.564 127.917 540.564 Q121.922 540.564 118.751 535.981 Q115.58 531.374 115.58 522.647 Q115.58 514.453 119.468 509.592 Q123.357 504.708 129.908 504.708 Q131.667 504.708 133.45 505.055 Q135.255 505.402 137.2 506.096 Z" fill="#000000" fill-rule="nonzero" fill-opacity="1" /><path clip-path="url(#clip900)" d="M127.593 228.865 Q124.26 228.865 122.339 230.647 Q120.441 232.429 120.441 235.554 Q120.441 238.679 122.339 240.462 Q124.26 242.244 127.593 242.244 Q130.927 242.244 132.848 240.462 Q134.769 238.656 134.769 235.554 Q134.769 232.429 132.848 230.647 Q130.95 228.865 127.593 228.865 M122.918 226.874 Q119.908 226.133 118.218 224.073 Q116.552 222.013 116.552 219.05 Q116.552 214.906 119.492 212.499 Q122.455 210.092 127.593 210.092 Q132.755 210.092 135.695 212.499 Q138.635 214.906 138.635 219.05 Q138.635 222.013 136.945 224.073 Q135.279 226.133 132.292 226.874 Q135.672 227.661 137.547 229.953 Q139.445 232.244 139.445 235.554 Q139.445 240.577 136.367 243.263 Q133.311 245.948 127.593 245.948 Q121.876 245.948 118.797 243.263 Q115.742 240.577 115.742 235.554 Q115.742 232.244 117.64 229.953 Q119.538 227.661 122.918 226.874 M121.205 219.49 Q121.205 222.175 122.871 223.679 Q124.561 225.184 127.593 225.184 Q130.603 225.184 132.292 223.679 Q134.005 222.175 134.005 219.49 Q134.005 216.804 132.292 215.3 Q130.603 213.795 127.593 213.795 Q124.561 213.795 122.871 215.3 Q121.205 216.804 121.205 219.49 Z" fill="#000000" fill-rule="nonzero" fill-opacity="1" /><path clip-path="url(#clip900)" d="M14.479 831.62 L14.479 825.763 L64.0042 825.763 L64.0042 831.62 L14.479 831.62 Z" fill="#000000" fill-rule="nonzero" fill-opacity="1" /><path clip-path="url(#clip900)" d="M32.4621 799.696 Q32.4621 804.407 36.1542 807.144 Q39.8145 809.881 46.212 809.881 Q52.6095 809.881 56.3017 807.176 Q59.9619 804.438 59.9619 799.696 Q59.9619 795.017 56.2698 792.28 Q52.5777 789.543 46.212 789.543 Q39.8781 789.543 36.186 792.28 Q32.4621 795.017 32.4621 799.696 M27.4968 799.696 Q27.4968 792.057 32.4621 787.697 Q37.4273 783.336 46.212 783.336 Q54.9649 783.336 59.9619 787.697 Q64.9272 792.057 64.9272 799.696 Q64.9272 807.367 59.9619 811.727 Q54.9649 816.056 46.212 816.056 Q37.4273 816.056 32.4621 811.727 Q27.4968 807.367 27.4968 799.696 Z" fill="#000000" fill-rule="nonzero" fill-opacity="1" /><path clip-path="url(#clip900)" d="M29.4065 750.903 L34.9447 750.903 Q33.6716 753.385 33.035 756.059 Q32.3984 758.733 32.3984 761.597 Q32.3984 765.958 33.7352 768.154 Q35.072 770.318 37.7456 770.318 Q39.7826 770.318 40.9603 768.759 Q42.1061 767.199 43.1565 762.488 L43.6021 760.483 Q44.9389 754.245 47.3897 751.635 Q49.8086 748.993 54.1691 748.993 Q59.1344 748.993 62.0308 752.94 Q64.9272 756.855 64.9272 763.73 Q64.9272 766.594 64.3543 769.713 Q63.8132 772.801 62.6992 776.238 L56.6518 776.238 Q58.3387 772.992 59.198 769.841 Q60.0256 766.69 60.0256 763.602 Q60.0256 759.465 58.6251 757.237 Q57.1929 755.009 54.6147 755.009 Q52.2276 755.009 50.9545 756.632 Q49.6813 758.223 48.5037 763.666 L48.0262 765.703 Q46.8804 771.146 44.5251 773.565 Q42.138 775.984 38.0002 775.984 Q32.9713 775.984 30.2341 772.419 Q27.4968 768.854 27.4968 762.297 Q27.4968 759.051 27.9743 756.186 Q28.4517 753.322 29.4065 750.903 Z" fill="#000000" fill-rule="nonzero" fill-opacity="1" /><path clip-path="url(#clip900)" d="M29.4065 716.942 L34.9447 716.942 Q33.6716 719.424 33.035 722.098 Q32.3984 724.772 32.3984 727.636 Q32.3984 731.997 33.7352 734.193 Q35.072 736.357 37.7456 736.357 Q39.7826 736.357 40.9603 734.798 Q42.1061 733.238 43.1565 728.527 L43.6021 726.522 Q44.9389 720.284 47.3897 717.674 Q49.8086 715.032 54.1691 715.032 Q59.1344 715.032 62.0308 718.979 Q64.9272 722.894 64.9272 729.769 Q64.9272 732.633 64.3543 735.752 Q63.8132 738.84 62.6992 742.277 L56.6518 742.277 Q58.3387 739.031 59.198 735.88 Q60.0256 732.729 60.0256 729.641 Q60.0256 725.504 58.6251 723.276 Q57.1929 721.048 54.6147 721.048 Q52.2276 721.048 50.9545 722.671 Q49.6813 724.262 48.5037 729.705 L48.0262 731.742 Q46.8804 737.185 44.5251 739.604 Q42.138 742.023 38.0002 742.023 Q32.9713 742.023 30.2341 738.458 Q27.4968 734.893 27.4968 728.336 Q27.4968 725.09 27.9743 722.225 Q28.4517 719.361 29.4065 716.942 Z" fill="#000000" fill-rule="nonzero" fill-opacity="1" /><path clip-path="url(#clip900)" d="M571.795 12.096 L579.978 12.096 L579.978 65.6895 L609.428 65.6895 L609.428 72.576 L571.795 72.576 L571.795 12.096 Z" fill="#000000" fill-rule="nonzero" fill-opacity="1" /><path clip-path="url(#clip900)" d="M633.814 32.4315 Q627.819 32.4315 624.335 37.1306 Q620.851 41.7891 620.851 49.9314 Q620.851 58.0738 624.295 62.7728 Q627.778 67.4314 633.814 67.4314 Q639.769 67.4314 643.253 62.7323 Q646.737 58.0333 646.737 49.9314 Q646.737 41.8701 643.253 37.1711 Q639.769 32.4315 633.814 32.4315 M633.814 26.1121 Q643.536 26.1121 649.086 32.4315 Q654.636 38.7509 654.636 49.9314 Q654.636 61.0714 649.086 67.4314 Q643.536 73.7508 633.814 73.7508 Q624.052 73.7508 618.502 67.4314 Q612.993 61.0714 612.993 49.9314 Q612.993 38.7509 618.502 32.4315 Q624.052 26.1121 633.814 26.1121 Z" fill="#000000" fill-rule="nonzero" fill-opacity="1" /><path clip-path="url(#clip900)" d="M695.915 28.5427 L695.915 35.5912 Q692.755 33.9709 689.352 33.1607 Q685.949 32.3505 682.304 32.3505 Q676.754 32.3505 673.959 34.0519 Q671.204 35.7533 671.204 39.156 Q671.204 41.7486 673.189 43.2475 Q675.174 44.7058 681.169 46.0426 L683.721 46.6097 Q691.661 48.3111 694.983 51.4303 Q698.345 54.509 698.345 60.0587 Q698.345 66.3781 693.322 70.0644 Q688.339 73.7508 679.589 73.7508 Q675.944 73.7508 671.974 73.0216 Q668.044 72.3329 663.669 70.9151 L663.669 63.2184 Q667.801 65.3654 671.812 66.4591 Q675.822 67.5124 679.752 67.5124 Q685.018 67.5124 687.853 65.73 Q690.689 63.9071 690.689 60.6258 Q690.689 57.5877 688.623 55.9673 Q686.598 54.3469 679.67 52.8481 L677.078 52.2405 Q670.151 50.7821 667.072 47.7845 Q663.993 44.7463 663.993 39.4801 Q663.993 33.0797 668.531 29.5959 Q673.068 26.1121 681.412 26.1121 Q685.544 26.1121 689.19 26.7198 Q692.836 27.3274 695.915 28.5427 Z" fill="#000000" fill-rule="nonzero" fill-opacity="1" /><path clip-path="url(#clip900)" d="M739.138 28.5427 L739.138 35.5912 Q735.978 33.9709 732.575 33.1607 Q729.173 32.3505 725.527 32.3505 Q719.977 32.3505 717.182 34.0519 Q714.427 35.7533 714.427 39.156 Q714.427 41.7486 716.412 43.2475 Q718.397 44.7058 724.392 46.0426 L726.945 46.6097 Q734.884 48.3111 738.206 51.4303 Q741.568 54.509 741.568 60.0587 Q741.568 66.3781 736.545 70.0644 Q731.563 73.7508 722.813 73.7508 Q719.167 73.7508 715.197 73.0216 Q711.268 72.3329 706.893 70.9151 L706.893 63.2184 Q711.024 65.3654 715.035 66.4591 Q719.045 67.5124 722.975 67.5124 Q728.241 67.5124 731.076 65.73 Q733.912 63.9071 733.912 60.6258 Q733.912 57.5877 731.846 55.9673 Q729.821 54.3469 722.894 52.8481 L720.301 52.2405 Q713.374 50.7821 710.295 47.7845 Q707.217 44.7463 707.217 39.4801 Q707.217 33.0797 711.754 29.5959 Q716.291 26.1121 724.636 26.1121 Q728.767 26.1121 732.413 26.7198 Q736.059 27.3274 739.138 28.5427 Z" fill="#000000" fill-rule="nonzero" fill-opacity="1" /><polyline clip-path="url(#clip902)" style="stroke:#009af9; stroke-linecap:round; stroke-linejoin:round; stroke-width:4; stroke-opacity:1; fill:none" points="202.685,160.256 225.967,534.1 249.249,777.746 272.531,932.402 295.813,1026.39 319.094,1089.25 342.376,1132.23 365.658,1165.49 388.94,1188.36 412.222,1204.23 435.504,1217.69 458.786,1230.64 482.068,1240.27 505.349,1250.49 528.631,1259.45 551.913,1273.74 575.195,1277.9 598.477,1290.31 621.759,1296.8 645.041,1302.22 668.323,1309.44 691.604,1317.8 714.886,1320.49 738.168,1328.86 761.45,1331.73 784.732,1336.29 808.014,1346.65 831.296,1347.25 854.578,1349.88 877.859,1354.74 901.141,1361.8 924.423,1363.84 947.705,1364.98 970.987,1368.5 994.269,1372.67 1017.55,1375.42 1040.83,1378.35 1064.11,1379.48 1087.4,1384.65 1110.68,1386.4 "/>
<polyline clip-path="url(#clip902)" style="stroke:#e26f46; stroke-linecap:round; stroke-linejoin:round; stroke-width:4; stroke-opacity:1; fill:none" points="202.685,803.616 225.967,912.98 249.249,963.516 272.531,995.325 295.813,1031.31 319.094,1071.57 342.376,1102.8 365.658,1130.15 388.94,1148.25 412.222,1161.38 435.504,1165.11 458.786,1190.72 482.068,1196.03 505.349,1208.77 528.631,1213.24 551.913,1229.38 575.195,1233.64 598.477,1246.1 621.759,1257.44 645.041,1265.31 668.323,1264.06 691.604,1268.96 714.886,1275.96 738.168,1272.07 761.45,1282.88 784.732,1285.15 808.014,1294.59 831.296,1304.5 854.578,1303.07 877.859,1310.56 901.141,1309.05 924.423,1308.09 947.705,1319.73 970.987,1321.59 994.269,1322.93 1017.55,1324.18 1040.83,1322.61 1064.11,1329.22 1087.4,1333.86 1110.68,1339.57 "/>
<path clip-path="url(#clip900)" d="M904.543 322.316 L1105.84 322.316 L1105.84 166.796 L904.543 166.796  Z" fill="#ffffff" fill-rule="evenodd" fill-opacity="1"/>
<polyline clip-path="url(#clip900)" style="stroke:#000000; stroke-linecap:round; stroke-linejoin:round; stroke-width:4; stroke-opacity:1; fill:none" points="904.543,322.316 1105.84,322.316 1105.84,166.796 904.543,166.796 904.543,322.316 "/>
<polyline clip-path="url(#clip900)" style="stroke:#009af9; stroke-linecap:round; stroke-linejoin:round; stroke-width:4; stroke-opacity:1; fill:none" points="915.237,218.636 979.402,218.636 "/>
<path clip-path="url(#clip900)" d="M997.503 202.629 L997.503 209.99 L1006.28 209.99 L1006.28 213.3 L997.503 213.3 L997.503 227.374 Q997.503 230.545 998.36 231.448 Q999.239 232.351 1001.9 232.351 L1006.28 232.351 L1006.28 235.916 L1001.9 235.916 Q996.971 235.916 995.096 234.087 Q993.221 232.235 993.221 227.374 L993.221 213.3 L990.096 213.3 L990.096 209.99 L993.221 209.99 L993.221 202.629 L997.503 202.629 Z" fill="#000000" fill-rule="nonzero" fill-opacity="1" /><path clip-path="url(#clip900)" d="M1026.9 213.971 Q1026.18 213.555 1025.33 213.37 Q1024.49 213.161 1023.48 213.161 Q1019.86 213.161 1017.92 215.522 Q1016 217.86 1016 222.258 L1016 235.916 L1011.72 235.916 L1011.72 209.99 L1016 209.99 L1016 214.018 Q1017.34 211.657 1019.49 210.522 Q1021.65 209.365 1024.73 209.365 Q1025.16 209.365 1025.7 209.434 Q1026.23 209.481 1026.88 209.596 L1026.9 213.971 Z" fill="#000000" fill-rule="nonzero" fill-opacity="1" /><path clip-path="url(#clip900)" d="M1043.15 222.883 Q1037.99 222.883 1036 224.064 Q1034.01 225.244 1034.01 228.092 Q1034.01 230.36 1035.49 231.703 Q1036.99 233.022 1039.56 233.022 Q1043.1 233.022 1045.23 230.522 Q1047.39 227.999 1047.39 223.832 L1047.39 222.883 L1043.15 222.883 M1051.65 221.124 L1051.65 235.916 L1047.39 235.916 L1047.39 231.981 Q1045.93 234.342 1043.75 235.476 Q1041.58 236.587 1038.43 236.587 Q1034.45 236.587 1032.09 234.365 Q1029.75 232.119 1029.75 228.369 Q1029.75 223.994 1032.66 221.772 Q1035.6 219.55 1041.41 219.55 L1047.39 219.55 L1047.39 219.133 Q1047.39 216.194 1045.44 214.596 Q1043.52 212.976 1040.03 212.976 Q1037.8 212.976 1035.7 213.508 Q1033.59 214.041 1031.65 215.106 L1031.65 211.17 Q1033.98 210.268 1036.18 209.828 Q1038.38 209.365 1040.47 209.365 Q1046.09 209.365 1048.87 212.282 Q1051.65 215.198 1051.65 221.124 Z" fill="#000000" fill-rule="nonzero" fill-opacity="1" /><path clip-path="url(#clip900)" d="M1060.42 209.99 L1064.68 209.99 L1064.68 235.916 L1060.42 235.916 L1060.42 209.99 M1060.42 199.897 L1064.68 199.897 L1064.68 205.291 L1060.42 205.291 L1060.42 199.897 Z" fill="#000000" fill-rule="nonzero" fill-opacity="1" /><path clip-path="url(#clip900)" d="M1095.14 220.268 L1095.14 235.916 L1090.88 235.916 L1090.88 220.407 Q1090.88 216.726 1089.45 214.897 Q1088.01 213.069 1085.14 213.069 Q1081.69 213.069 1079.7 215.268 Q1077.71 217.467 1077.71 221.263 L1077.71 235.916 L1073.43 235.916 L1073.43 209.99 L1077.71 209.99 L1077.71 214.018 Q1079.24 211.68 1081.3 210.522 Q1083.38 209.365 1086.09 209.365 Q1090.56 209.365 1092.85 212.143 Q1095.14 214.897 1095.14 220.268 Z" fill="#000000" fill-rule="nonzero" fill-opacity="1" /><polyline clip-path="url(#clip900)" style="stroke:#e26f46; stroke-linecap:round; stroke-linejoin:round; stroke-width:4; stroke-opacity:1; fill:none" points="915.237,270.476 979.402,270.476 "/>
<path clip-path="url(#clip900)" d="M997.503 254.469 L997.503 261.83 L1006.28 261.83 L1006.28 265.14 L997.503 265.14 L997.503 279.214 Q997.503 282.385 998.36 283.288 Q999.239 284.191 1001.9 284.191 L1006.28 284.191 L1006.28 287.756 L1001.9 287.756 Q996.971 287.756 995.096 285.927 Q993.221 284.075 993.221 279.214 L993.221 265.14 L990.096 265.14 L990.096 261.83 L993.221 261.83 L993.221 254.469 L997.503 254.469 Z" fill="#000000" fill-rule="nonzero" fill-opacity="1" /><path clip-path="url(#clip900)" d="M1034.05 273.728 L1034.05 275.811 L1014.47 275.811 Q1014.75 280.209 1017.11 282.524 Q1019.49 284.816 1023.73 284.816 Q1026.18 284.816 1028.48 284.214 Q1030.79 283.612 1033.06 282.409 L1033.06 286.436 Q1030.77 287.408 1028.36 287.918 Q1025.95 288.427 1023.48 288.427 Q1017.27 288.427 1013.64 284.816 Q1010.03 281.205 1010.03 275.047 Q1010.03 268.682 1013.45 264.955 Q1016.9 261.205 1022.73 261.205 Q1027.97 261.205 1031 264.585 Q1034.05 267.941 1034.05 273.728 M1029.79 272.478 Q1029.75 268.983 1027.83 266.899 Q1025.93 264.816 1022.78 264.816 Q1019.22 264.816 1017.06 266.83 Q1014.93 268.844 1014.61 272.501 L1029.79 272.478 Z" fill="#000000" fill-rule="nonzero" fill-opacity="1" /><path clip-path="url(#clip900)" d="M1057.57 262.594 L1057.57 266.622 Q1055.77 265.696 1053.82 265.233 Q1051.88 264.77 1049.79 264.77 Q1046.62 264.77 1045.03 265.742 Q1043.45 266.714 1043.45 268.659 Q1043.45 270.14 1044.59 270.997 Q1045.72 271.83 1049.15 272.594 L1050.6 272.918 Q1055.14 273.89 1057.04 275.672 Q1058.96 277.432 1058.96 280.603 Q1058.96 284.214 1056.09 286.321 Q1053.24 288.427 1048.24 288.427 Q1046.16 288.427 1043.89 288.01 Q1041.65 287.617 1039.15 286.807 L1039.15 282.409 Q1041.51 283.635 1043.8 284.26 Q1046.09 284.862 1048.34 284.862 Q1051.35 284.862 1052.97 283.844 Q1054.59 282.802 1054.59 280.927 Q1054.59 279.191 1053.41 278.265 Q1052.25 277.339 1048.29 276.483 L1046.81 276.135 Q1042.85 275.302 1041.09 273.589 Q1039.33 271.853 1039.33 268.844 Q1039.33 265.186 1041.92 263.196 Q1044.52 261.205 1049.29 261.205 Q1051.65 261.205 1053.73 261.552 Q1055.81 261.899 1057.57 262.594 Z" fill="#000000" fill-rule="nonzero" fill-opacity="1" /><path clip-path="url(#clip900)" d="M1069.96 254.469 L1069.96 261.83 L1078.73 261.83 L1078.73 265.14 L1069.96 265.14 L1069.96 279.214 Q1069.96 282.385 1070.81 283.288 Q1071.69 284.191 1074.35 284.191 L1078.73 284.191 L1078.73 287.756 L1074.35 287.756 Q1069.42 287.756 1067.55 285.927 Q1065.67 284.075 1065.67 279.214 L1065.67 265.14 L1062.55 265.14 L1062.55 261.83 L1065.67 261.83 L1065.67 254.469 L1069.96 254.469 Z" fill="#000000" fill-rule="nonzero" fill-opacity="1" /><path clip-path="url(#clip900)" d="M1390.28 1423.18 L2352.76 1423.18 L2352.76 123.472 L1390.28 123.472  Z" fill="#ffffff" fill-rule="evenodd" fill-opacity="1"/>
<defs>
  <clipPath id="clip903">
    <rect x="1390" y="123" width="963" height="1301"/>
  </clipPath>
</defs>
<polyline clip-path="url(#clip903)" style="stroke:#000000; stroke-linecap:round; stroke-linejoin:round; stroke-width:2; stroke-opacity:0.1; fill:none" points="1417.52,1423.18 1417.52,123.472 "/>
<polyline clip-path="url(#clip903)" style="stroke:#000000; stroke-linecap:round; stroke-linejoin:round; stroke-width:2; stroke-opacity:0.1; fill:none" points="1644.52,1423.18 1644.52,123.472 "/>
<polyline clip-path="url(#clip903)" style="stroke:#000000; stroke-linecap:round; stroke-linejoin:round; stroke-width:2; stroke-opacity:0.1; fill:none" points="1871.52,1423.18 1871.52,123.472 "/>
<polyline clip-path="url(#clip903)" style="stroke:#000000; stroke-linecap:round; stroke-linejoin:round; stroke-width:2; stroke-opacity:0.1; fill:none" points="2098.52,1423.18 2098.52,123.472 "/>
<polyline clip-path="url(#clip903)" style="stroke:#000000; stroke-linecap:round; stroke-linejoin:round; stroke-width:2; stroke-opacity:0.1; fill:none" points="2325.52,1423.18 2325.52,123.472 "/>
<polyline clip-path="url(#clip900)" style="stroke:#000000; stroke-linecap:round; stroke-linejoin:round; stroke-width:4; stroke-opacity:1; fill:none" points="1390.28,1423.18 2352.76,1423.18 "/>
<polyline clip-path="url(#clip900)" style="stroke:#000000; stroke-linecap:round; stroke-linejoin:round; stroke-width:4; stroke-opacity:1; fill:none" points="1417.52,1423.18 1417.52,1404.28 "/>
<polyline clip-path="url(#clip900)" style="stroke:#000000; stroke-linecap:round; stroke-linejoin:round; stroke-width:4; stroke-opacity:1; fill:none" points="1644.52,1423.18 1644.52,1404.28 "/>
<polyline clip-path="url(#clip900)" style="stroke:#000000; stroke-linecap:round; stroke-linejoin:round; stroke-width:4; stroke-opacity:1; fill:none" points="1871.52,1423.18 1871.52,1404.28 "/>
<polyline clip-path="url(#clip900)" style="stroke:#000000; stroke-linecap:round; stroke-linejoin:round; stroke-width:4; stroke-opacity:1; fill:none" points="2098.52,1423.18 2098.52,1404.28 "/>
<polyline clip-path="url(#clip900)" style="stroke:#000000; stroke-linecap:round; stroke-linejoin:round; stroke-width:4; stroke-opacity:1; fill:none" points="2325.52,1423.18 2325.52,1404.28 "/>
<path clip-path="url(#clip900)" d="M1417.52 1454.1 Q1413.91 1454.1 1412.08 1457.66 Q1410.28 1461.2 1410.28 1468.33 Q1410.28 1475.44 1412.08 1479.01 Q1413.91 1482.55 1417.52 1482.55 Q1421.16 1482.55 1422.96 1479.01 Q1424.79 1475.44 1424.79 1468.33 Q1424.79 1461.2 1422.96 1457.66 Q1421.16 1454.1 1417.52 1454.1 M1417.52 1450.39 Q1423.33 1450.39 1426.39 1455 Q1429.47 1459.58 1429.47 1468.33 Q1429.47 1477.06 1426.39 1481.67 Q1423.33 1486.25 1417.52 1486.25 Q1411.71 1486.25 1408.63 1481.67 Q1405.58 1477.06 1405.58 1468.33 Q1405.58 1459.58 1408.63 1455 Q1411.71 1450.39 1417.52 1450.39 Z" fill="#000000" fill-rule="nonzero" fill-opacity="1" /><path clip-path="url(#clip900)" d="M1619.21 1481.64 L1626.85 1481.64 L1626.85 1455.28 L1618.54 1456.95 L1618.54 1452.69 L1626.8 1451.02 L1631.48 1451.02 L1631.48 1481.64 L1639.12 1481.64 L1639.12 1485.58 L1619.21 1485.58 L1619.21 1481.64 Z" fill="#000000" fill-rule="nonzero" fill-opacity="1" /><path clip-path="url(#clip900)" d="M1658.56 1454.1 Q1654.95 1454.1 1653.12 1457.66 Q1651.32 1461.2 1651.32 1468.33 Q1651.32 1475.44 1653.12 1479.01 Q1654.95 1482.55 1658.56 1482.55 Q1662.19 1482.55 1664 1479.01 Q1665.83 1475.44 1665.83 1468.33 Q1665.83 1461.2 1664 1457.66 Q1662.19 1454.1 1658.56 1454.1 M1658.56 1450.39 Q1664.37 1450.39 1667.43 1455 Q1670.5 1459.58 1670.5 1468.33 Q1670.5 1477.06 1667.43 1481.67 Q1664.37 1486.25 1658.56 1486.25 Q1652.75 1486.25 1649.67 1481.67 Q1646.62 1477.06 1646.62 1468.33 Q1646.62 1459.58 1649.67 1455 Q1652.75 1450.39 1658.56 1450.39 Z" fill="#000000" fill-rule="nonzero" fill-opacity="1" /><path clip-path="url(#clip900)" d="M1850.29 1481.64 L1866.61 1481.64 L1866.61 1485.58 L1844.67 1485.58 L1844.67 1481.64 Q1847.33 1478.89 1851.91 1474.26 Q1856.52 1469.61 1857.7 1468.27 Q1859.95 1465.74 1860.83 1464.01 Q1861.73 1462.25 1861.73 1460.56 Q1861.73 1457.8 1859.78 1456.07 Q1857.86 1454.33 1854.76 1454.33 Q1852.56 1454.33 1850.11 1455.09 Q1847.68 1455.86 1844.9 1457.41 L1844.9 1452.69 Q1847.72 1451.55 1850.18 1450.97 Q1852.63 1450.39 1854.67 1450.39 Q1860.04 1450.39 1863.23 1453.08 Q1866.43 1455.77 1866.43 1460.26 Q1866.43 1462.39 1865.62 1464.31 Q1864.83 1466.2 1862.72 1468.8 Q1862.14 1469.47 1859.04 1472.69 Q1855.94 1475.88 1850.29 1481.64 Z" fill="#000000" fill-rule="nonzero" fill-opacity="1" /><path clip-path="url(#clip900)" d="M1886.43 1454.1 Q1882.82 1454.1 1880.99 1457.66 Q1879.18 1461.2 1879.18 1468.33 Q1879.18 1475.44 1880.99 1479.01 Q1882.82 1482.55 1886.43 1482.55 Q1890.06 1482.55 1891.87 1479.01 Q1893.7 1475.44 1893.7 1468.33 Q1893.7 1461.2 1891.87 1457.66 Q1890.06 1454.1 1886.43 1454.1 M1886.43 1450.39 Q1892.24 1450.39 1895.29 1455 Q1898.37 1459.58 1898.37 1468.33 Q1898.37 1477.06 1895.29 1481.67 Q1892.24 1486.25 1886.43 1486.25 Q1880.62 1486.25 1877.54 1481.67 Q1874.48 1477.06 1874.48 1468.33 Q1874.48 1459.58 1877.54 1455 Q1880.62 1450.39 1886.43 1450.39 Z" fill="#000000" fill-rule="nonzero" fill-opacity="1" /><path clip-path="url(#clip900)" d="M2087.36 1466.95 Q2090.72 1467.66 2092.59 1469.93 Q2094.49 1472.2 2094.49 1475.53 Q2094.49 1480.65 2090.97 1483.45 Q2087.45 1486.25 2080.97 1486.25 Q2078.8 1486.25 2076.48 1485.81 Q2074.19 1485.39 2071.74 1484.54 L2071.74 1480.02 Q2073.68 1481.16 2075.99 1481.74 Q2078.31 1482.32 2080.83 1482.32 Q2085.23 1482.32 2087.52 1480.58 Q2089.84 1478.84 2089.84 1475.53 Q2089.84 1472.48 2087.68 1470.77 Q2085.55 1469.03 2081.74 1469.03 L2077.71 1469.03 L2077.71 1465.19 L2081.92 1465.19 Q2085.37 1465.19 2087.2 1463.82 Q2089.03 1462.43 2089.03 1459.84 Q2089.03 1457.18 2087.13 1455.77 Q2085.25 1454.33 2081.74 1454.33 Q2079.81 1454.33 2077.62 1454.75 Q2075.42 1455.16 2072.78 1456.04 L2072.78 1451.88 Q2075.44 1451.14 2077.75 1450.77 Q2080.09 1450.39 2082.15 1450.39 Q2087.48 1450.39 2090.58 1452.83 Q2093.68 1455.23 2093.68 1459.35 Q2093.68 1462.22 2092.04 1464.21 Q2090.39 1466.18 2087.36 1466.95 Z" fill="#000000" fill-rule="nonzero" fill-opacity="1" /><path clip-path="url(#clip900)" d="M2113.36 1454.1 Q2109.74 1454.1 2107.92 1457.66 Q2106.11 1461.2 2106.11 1468.33 Q2106.11 1475.44 2107.92 1479.01 Q2109.74 1482.55 2113.36 1482.55 Q2116.99 1482.55 2118.8 1479.01 Q2120.62 1475.44 2120.62 1468.33 Q2120.62 1461.2 2118.8 1457.66 Q2116.99 1454.1 2113.36 1454.1 M2113.36 1450.39 Q2119.17 1450.39 2122.22 1455 Q2125.3 1459.58 2125.3 1468.33 Q2125.3 1477.06 2122.22 1481.67 Q2119.17 1486.25 2113.36 1486.25 Q2107.55 1486.25 2104.47 1481.67 Q2101.41 1477.06 2101.41 1468.33 Q2101.41 1459.58 2104.47 1455 Q2107.55 1450.39 2113.36 1450.39 Z" fill="#000000" fill-rule="nonzero" fill-opacity="1" /><path clip-path="url(#clip900)" d="M2313.69 1455.09 L2301.88 1473.54 L2313.69 1473.54 L2313.69 1455.09 M2312.46 1451.02 L2318.34 1451.02 L2318.34 1473.54 L2323.27 1473.54 L2323.27 1477.43 L2318.34 1477.43 L2318.34 1485.58 L2313.69 1485.58 L2313.69 1477.43 L2298.09 1477.43 L2298.09 1472.92 L2312.46 1451.02 Z" fill="#000000" fill-rule="nonzero" fill-opacity="1" /><path clip-path="url(#clip900)" d="M2341 1454.1 Q2337.39 1454.1 2335.56 1457.66 Q2333.76 1461.2 2333.76 1468.33 Q2333.76 1475.44 2335.56 1479.01 Q2337.39 1482.55 2341 1482.55 Q2344.64 1482.55 2346.44 1479.01 Q2348.27 1475.44 2348.27 1468.33 Q2348.27 1461.2 2346.44 1457.66 Q2344.64 1454.1 2341 1454.1 M2341 1450.39 Q2346.81 1450.39 2349.87 1455 Q2352.95 1459.58 2352.95 1468.33 Q2352.95 1477.06 2349.87 1481.67 Q2346.81 1486.25 2341 1486.25 Q2335.19 1486.25 2332.11 1481.67 Q2329.06 1477.06 2329.06 1468.33 Q2329.06 1459.58 2332.11 1455 Q2335.19 1450.39 2341 1450.39 Z" fill="#000000" fill-rule="nonzero" fill-opacity="1" /><path clip-path="url(#clip900)" d="M1791.71 1548.76 L1791.71 1551.62 L1764.78 1551.62 Q1765.16 1557.67 1768.41 1560.85 Q1771.69 1564 1777.51 1564 Q1780.89 1564 1784.04 1563.17 Q1787.22 1562.35 1790.34 1560.69 L1790.34 1566.23 Q1787.19 1567.57 1783.88 1568.27 Q1780.57 1568.97 1777.16 1568.97 Q1768.63 1568.97 1763.64 1564 Q1758.67 1559.04 1758.67 1550.57 Q1758.67 1541.82 1763.38 1536.69 Q1768.12 1531.54 1776.15 1531.54 Q1783.34 1531.54 1787.51 1536.18 Q1791.71 1540.8 1791.71 1548.76 M1785.85 1547.04 Q1785.79 1542.23 1783.15 1539.37 Q1780.54 1536.5 1776.21 1536.5 Q1771.31 1536.5 1768.35 1539.27 Q1765.42 1542.04 1764.97 1547.07 L1785.85 1547.04 Z" fill="#000000" fill-rule="nonzero" fill-opacity="1" /><path clip-path="url(#clip900)" d="M1806.99 1562.7 L1806.99 1581.6 L1801.1 1581.6 L1801.1 1532.4 L1806.99 1532.4 L1806.99 1537.81 Q1808.83 1534.62 1811.63 1533.1 Q1814.47 1531.54 1818.38 1531.54 Q1824.87 1531.54 1828.92 1536.69 Q1832.99 1541.85 1832.99 1550.25 Q1832.99 1558.65 1828.92 1563.81 Q1824.87 1568.97 1818.38 1568.97 Q1814.47 1568.97 1811.63 1567.44 Q1808.83 1565.88 1806.99 1562.7 M1826.91 1550.25 Q1826.91 1543.79 1824.24 1540.13 Q1821.6 1536.44 1816.95 1536.44 Q1812.3 1536.44 1809.63 1540.13 Q1806.99 1543.79 1806.99 1550.25 Q1806.99 1556.71 1809.63 1560.4 Q1812.3 1564.07 1816.95 1564.07 Q1821.6 1564.07 1824.24 1560.4 Q1826.91 1556.71 1826.91 1550.25 Z" fill="#000000" fill-rule="nonzero" fill-opacity="1" /><path clip-path="url(#clip900)" d="M1856.51 1536.5 Q1851.8 1536.5 1849.06 1540.19 Q1846.33 1543.85 1846.33 1550.25 Q1846.33 1556.65 1849.03 1560.34 Q1851.77 1564 1856.51 1564 Q1861.19 1564 1863.93 1560.31 Q1866.67 1556.62 1866.67 1550.25 Q1866.67 1543.92 1863.93 1540.23 Q1861.19 1536.5 1856.51 1536.5 M1856.51 1531.54 Q1864.15 1531.54 1868.51 1536.5 Q1872.87 1541.47 1872.87 1550.25 Q1872.87 1559 1868.51 1564 Q1864.15 1568.97 1856.51 1568.97 Q1848.84 1568.97 1844.48 1564 Q1840.15 1559 1840.15 1550.25 Q1840.15 1541.47 1844.48 1536.5 Q1848.84 1531.54 1856.51 1531.54 Z" fill="#000000" fill-rule="nonzero" fill-opacity="1" /><path clip-path="url(#clip900)" d="M1908.23 1533.76 L1908.23 1539.24 Q1905.75 1537.87 1903.24 1537.2 Q1900.75 1536.5 1898.21 1536.5 Q1892.51 1536.5 1889.36 1540.13 Q1886.21 1543.73 1886.21 1550.25 Q1886.21 1556.78 1889.36 1560.4 Q1892.51 1564 1898.21 1564 Q1900.75 1564 1903.24 1563.33 Q1905.75 1562.63 1908.23 1561.26 L1908.23 1566.68 Q1905.78 1567.82 1903.14 1568.39 Q1900.53 1568.97 1897.57 1568.97 Q1889.52 1568.97 1884.78 1563.91 Q1880.03 1558.85 1880.03 1550.25 Q1880.03 1541.53 1884.81 1536.53 Q1889.61 1531.54 1897.95 1531.54 Q1900.66 1531.54 1903.24 1532.11 Q1905.81 1532.65 1908.23 1533.76 Z" fill="#000000" fill-rule="nonzero" fill-opacity="1" /><path clip-path="url(#clip900)" d="M1948.05 1546.53 L1948.05 1568.04 L1942.19 1568.04 L1942.19 1546.72 Q1942.19 1541.66 1940.22 1539.14 Q1938.25 1536.63 1934.3 1536.63 Q1929.56 1536.63 1926.82 1539.65 Q1924.08 1542.68 1924.08 1547.9 L1924.08 1568.04 L1918.2 1568.04 L1918.2 1518.52 L1924.08 1518.52 L1924.08 1537.93 Q1926.19 1534.72 1929.02 1533.13 Q1931.88 1531.54 1935.61 1531.54 Q1941.75 1531.54 1944.9 1535.36 Q1948.05 1539.14 1948.05 1546.53 Z" fill="#000000" fill-rule="nonzero" fill-opacity="1" /><path clip-path="url(#clip900)" d="M1982.46 1533.45 L1982.46 1538.98 Q1979.98 1537.71 1977.3 1537.07 Q1974.63 1536.44 1971.76 1536.44 Q1967.4 1536.44 1965.21 1537.77 Q1963.04 1539.11 1963.04 1541.79 Q1963.04 1543.82 1964.6 1545 Q1966.16 1546.15 1970.87 1547.2 L1972.88 1547.64 Q1979.12 1548.98 1981.73 1551.43 Q1984.37 1553.85 1984.37 1558.21 Q1984.37 1563.17 1980.42 1566.07 Q1976.51 1568.97 1969.63 1568.97 Q1966.77 1568.97 1963.65 1568.39 Q1960.56 1567.85 1957.12 1566.74 L1957.12 1560.69 Q1960.37 1562.38 1963.52 1563.24 Q1966.67 1564.07 1969.76 1564.07 Q1973.9 1564.07 1976.12 1562.66 Q1978.35 1561.23 1978.35 1558.65 Q1978.35 1556.27 1976.73 1554.99 Q1975.14 1553.72 1969.69 1552.54 L1967.66 1552.07 Q1962.21 1550.92 1959.8 1548.56 Q1957.38 1546.18 1957.38 1542.04 Q1957.38 1537.01 1960.94 1534.27 Q1964.51 1531.54 1971.06 1531.54 Q1974.31 1531.54 1977.17 1532.01 Q1980.04 1532.49 1982.46 1533.45 Z" fill="#000000" fill-rule="nonzero" fill-opacity="1" /><polyline clip-path="url(#clip903)" style="stroke:#000000; stroke-linecap:round; stroke-linejoin:round; stroke-width:2; stroke-opacity:0.1; fill:none" points="1390.28,1222.57 2352.76,1222.57 "/>
<polyline clip-path="url(#clip903)" style="stroke:#000000; stroke-linecap:round; stroke-linejoin:round; stroke-width:2; stroke-opacity:0.1; fill:none" points="1390.28,962.08 2352.76,962.08 "/>
<polyline clip-path="url(#clip903)" style="stroke:#000000; stroke-linecap:round; stroke-linejoin:round; stroke-width:2; stroke-opacity:0.1; fill:none" points="1390.28,701.589 2352.76,701.589 "/>
<polyline clip-path="url(#clip903)" style="stroke:#000000; stroke-linecap:round; stroke-linejoin:round; stroke-width:2; stroke-opacity:0.1; fill:none" points="1390.28,441.098 2352.76,441.098 "/>
<polyline clip-path="url(#clip903)" style="stroke:#000000; stroke-linecap:round; stroke-linejoin:round; stroke-width:2; stroke-opacity:0.1; fill:none" points="1390.28,180.607 2352.76,180.607 "/>
<polyline clip-path="url(#clip900)" style="stroke:#000000; stroke-linecap:round; stroke-linejoin:round; stroke-width:4; stroke-opacity:1; fill:none" points="1390.28,1423.18 1390.28,123.472 "/>
<polyline clip-path="url(#clip900)" style="stroke:#000000; stroke-linecap:round; stroke-linejoin:round; stroke-width:4; stroke-opacity:1; fill:none" points="1390.28,1222.57 1409.18,1222.57 "/>
<polyline clip-path="url(#clip900)" style="stroke:#000000; stroke-linecap:round; stroke-linejoin:round; stroke-width:4; stroke-opacity:1; fill:none" points="1390.28,962.08 1409.18,962.08 "/>
<polyline clip-path="url(#clip900)" style="stroke:#000000; stroke-linecap:round; stroke-linejoin:round; stroke-width:4; stroke-opacity:1; fill:none" points="1390.28,701.589 1409.18,701.589 "/>
<polyline clip-path="url(#clip900)" style="stroke:#000000; stroke-linecap:round; stroke-linejoin:round; stroke-width:4; stroke-opacity:1; fill:none" points="1390.28,441.098 1409.18,441.098 "/>
<polyline clip-path="url(#clip900)" style="stroke:#000000; stroke-linecap:round; stroke-linejoin:round; stroke-width:4; stroke-opacity:1; fill:none" points="1390.28,180.607 1409.18,180.607 "/>
<path clip-path="url(#clip900)" d="M1302.99 1235.92 L1310.63 1235.92 L1310.63 1209.55 L1302.32 1211.22 L1302.32 1206.96 L1310.58 1205.29 L1315.26 1205.29 L1315.26 1235.92 L1322.89 1235.92 L1322.89 1239.85 L1302.99 1239.85 L1302.99 1235.92 Z" fill="#000000" fill-rule="nonzero" fill-opacity="1" /><path clip-path="url(#clip900)" d="M1342.34 1208.37 Q1338.73 1208.37 1336.9 1211.93 Q1335.09 1215.48 1335.09 1222.61 Q1335.09 1229.71 1336.9 1233.28 Q1338.73 1236.82 1342.34 1236.82 Q1345.97 1236.82 1347.78 1233.28 Q1349.61 1229.71 1349.61 1222.61 Q1349.61 1215.48 1347.78 1211.93 Q1345.97 1208.37 1342.34 1208.37 M1342.34 1204.67 Q1348.15 1204.67 1351.2 1209.27 Q1354.28 1213.86 1354.28 1222.61 Q1354.28 1231.33 1351.2 1235.94 Q1348.15 1240.52 1342.34 1240.52 Q1336.53 1240.52 1333.45 1235.94 Q1330.39 1231.33 1330.39 1222.61 Q1330.39 1213.86 1333.45 1209.27 Q1336.53 1204.67 1342.34 1204.67 Z" fill="#000000" fill-rule="nonzero" fill-opacity="1" /><path clip-path="url(#clip900)" d="M1306.2 975.425 L1322.52 975.425 L1322.52 979.36 L1300.58 979.36 L1300.58 975.425 Q1303.24 972.67 1307.83 968.041 Q1312.43 963.388 1313.61 962.045 Q1315.86 959.522 1316.74 957.786 Q1317.64 956.027 1317.64 954.337 Q1317.64 951.583 1315.7 949.846 Q1313.77 948.11 1310.67 948.11 Q1308.47 948.11 1306.02 948.874 Q1303.59 949.638 1300.81 951.189 L1300.81 946.467 Q1303.64 945.333 1306.09 944.754 Q1308.54 944.175 1310.58 944.175 Q1315.95 944.175 1319.14 946.86 Q1322.34 949.546 1322.34 954.036 Q1322.34 956.166 1321.53 958.087 Q1320.74 959.985 1318.64 962.578 Q1318.06 963.249 1314.95 966.467 Q1311.85 969.661 1306.2 975.425 Z" fill="#000000" fill-rule="nonzero" fill-opacity="1" /><path clip-path="url(#clip900)" d="M1342.34 947.879 Q1338.73 947.879 1336.9 951.444 Q1335.09 954.985 1335.09 962.115 Q1335.09 969.221 1336.9 972.786 Q1338.73 976.328 1342.34 976.328 Q1345.97 976.328 1347.78 972.786 Q1349.61 969.221 1349.61 962.115 Q1349.61 954.985 1347.78 951.444 Q1345.97 947.879 1342.34 947.879 M1342.34 944.175 Q1348.15 944.175 1351.2 948.782 Q1354.28 953.365 1354.28 962.115 Q1354.28 970.842 1351.2 975.448 Q1348.15 980.032 1342.34 980.032 Q1336.53 980.032 1333.45 975.448 Q1330.39 970.842 1330.39 962.115 Q1330.39 953.365 1333.45 948.782 Q1336.53 944.175 1342.34 944.175 Z" fill="#000000" fill-rule="nonzero" fill-opacity="1" /><path clip-path="url(#clip900)" d="M1316.34 700.235 Q1319.7 700.953 1321.57 703.221 Q1323.47 705.49 1323.47 708.823 Q1323.47 713.939 1319.95 716.74 Q1316.44 719.54 1309.95 719.54 Q1307.78 719.54 1305.46 719.101 Q1303.17 718.684 1300.72 717.828 L1300.72 713.314 Q1302.66 714.448 1304.98 715.027 Q1307.29 715.605 1309.82 715.605 Q1314.21 715.605 1316.51 713.869 Q1318.82 712.133 1318.82 708.823 Q1318.82 705.767 1316.67 704.054 Q1314.54 702.318 1310.72 702.318 L1306.69 702.318 L1306.69 698.476 L1310.9 698.476 Q1314.35 698.476 1316.18 697.11 Q1318.01 695.721 1318.01 693.129 Q1318.01 690.467 1316.11 689.055 Q1314.24 687.619 1310.72 687.619 Q1308.8 687.619 1306.6 688.036 Q1304.4 688.453 1301.76 689.332 L1301.76 685.166 Q1304.42 684.425 1306.74 684.055 Q1309.08 683.684 1311.14 683.684 Q1316.46 683.684 1319.56 686.115 Q1322.66 688.522 1322.66 692.642 Q1322.66 695.513 1321.02 697.504 Q1319.38 699.471 1316.34 700.235 Z" fill="#000000" fill-rule="nonzero" fill-opacity="1" /><path clip-path="url(#clip900)" d="M1342.34 687.388 Q1338.73 687.388 1336.9 690.953 Q1335.09 694.494 1335.09 701.624 Q1335.09 708.73 1336.9 712.295 Q1338.73 715.837 1342.34 715.837 Q1345.97 715.837 1347.78 712.295 Q1349.61 708.73 1349.61 701.624 Q1349.61 694.494 1347.78 690.953 Q1345.97 687.388 1342.34 687.388 M1342.34 683.684 Q1348.15 683.684 1351.2 688.291 Q1354.28 692.874 1354.28 701.624 Q1354.28 710.351 1351.2 714.957 Q1348.15 719.54 1342.34 719.54 Q1336.53 719.54 1333.45 714.957 Q1330.39 710.351 1330.39 701.624 Q1330.39 692.874 1333.45 688.291 Q1336.53 683.684 1342.34 683.684 Z" fill="#000000" fill-rule="nonzero" fill-opacity="1" /><path clip-path="url(#clip900)" d="M1315.02 427.892 L1303.22 446.341 L1315.02 446.341 L1315.02 427.892 M1313.8 423.818 L1319.68 423.818 L1319.68 446.341 L1324.61 446.341 L1324.61 450.23 L1319.68 450.23 L1319.68 458.378 L1315.02 458.378 L1315.02 450.23 L1299.42 450.23 L1299.42 445.716 L1313.8 423.818 Z" fill="#000000" fill-rule="nonzero" fill-opacity="1" /><path clip-path="url(#clip900)" d="M1342.34 426.897 Q1338.73 426.897 1336.9 430.462 Q1335.09 434.003 1335.09 441.133 Q1335.09 448.239 1336.9 451.804 Q1338.73 455.346 1342.34 455.346 Q1345.97 455.346 1347.78 451.804 Q1349.61 448.239 1349.61 441.133 Q1349.61 434.003 1347.78 430.462 Q1345.97 426.897 1342.34 426.897 M1342.34 423.193 Q1348.15 423.193 1351.2 427.8 Q1354.28 432.383 1354.28 441.133 Q1354.28 449.86 1351.2 454.466 Q1348.15 459.049 1342.34 459.049 Q1336.53 459.049 1333.45 454.466 Q1330.39 449.86 1330.39 441.133 Q1330.39 432.383 1333.45 427.8 Q1336.53 423.193 1342.34 423.193 Z" fill="#000000" fill-rule="nonzero" fill-opacity="1" /><path clip-path="url(#clip900)" d="M1302.22 163.327 L1320.58 163.327 L1320.58 167.262 L1306.51 167.262 L1306.51 175.735 Q1307.52 175.387 1308.54 175.225 Q1309.56 175.04 1310.58 175.04 Q1316.37 175.04 1319.75 178.211 Q1323.13 181.383 1323.13 186.799 Q1323.13 192.378 1319.65 195.48 Q1316.18 198.558 1309.86 198.558 Q1307.69 198.558 1305.42 198.188 Q1303.17 197.818 1300.76 197.077 L1300.76 192.378 Q1302.85 193.512 1305.07 194.068 Q1307.29 194.623 1309.77 194.623 Q1313.77 194.623 1316.11 192.517 Q1318.45 190.41 1318.45 186.799 Q1318.45 183.188 1316.11 181.082 Q1313.77 178.975 1309.77 178.975 Q1307.89 178.975 1306.02 179.392 Q1304.17 179.809 1302.22 180.688 L1302.22 163.327 Z" fill="#000000" fill-rule="nonzero" fill-opacity="1" /><path clip-path="url(#clip900)" d="M1342.34 166.406 Q1338.73 166.406 1336.9 169.971 Q1335.09 173.512 1335.09 180.642 Q1335.09 187.748 1336.9 191.313 Q1338.73 194.855 1342.34 194.855 Q1345.97 194.855 1347.78 191.313 Q1349.61 187.748 1349.61 180.642 Q1349.61 173.512 1347.78 169.971 Q1345.97 166.406 1342.34 166.406 M1342.34 162.702 Q1348.15 162.702 1351.2 167.309 Q1354.28 171.892 1354.28 180.642 Q1354.28 189.369 1351.2 193.975 Q1348.15 198.558 1342.34 198.558 Q1336.53 198.558 1333.45 193.975 Q1330.39 189.369 1330.39 180.642 Q1330.39 171.892 1333.45 167.309 Q1336.53 162.702 1342.34 162.702 Z" fill="#000000" fill-rule="nonzero" fill-opacity="1" /><path clip-path="url(#clip900)" d="M1218.99 822.851 Q1218.42 823.838 1218.17 825.016 Q1217.88 826.161 1217.88 827.562 Q1217.88 832.527 1221.13 835.201 Q1224.34 837.842 1230.39 837.842 L1249.17 837.842 L1249.17 843.731 L1213.52 843.731 L1213.52 837.842 L1219.06 837.842 Q1215.81 835.996 1214.25 833.036 Q1212.66 830.076 1212.66 825.843 Q1212.66 825.238 1212.75 824.506 Q1212.82 823.774 1212.98 822.883 L1218.99 822.851 Z" fill="#000000" fill-rule="nonzero" fill-opacity="1" /><path clip-path="url(#clip900)" d="M1231.25 800.508 Q1231.25 807.605 1232.87 810.343 Q1234.49 813.08 1238.41 813.08 Q1241.53 813.08 1243.37 811.043 Q1245.19 808.974 1245.19 805.441 Q1245.19 800.571 1241.75 797.643 Q1238.28 794.683 1232.55 794.683 L1231.25 794.683 L1231.25 800.508 M1228.83 788.826 L1249.17 788.826 L1249.17 794.683 L1243.76 794.683 Q1247 796.688 1248.56 799.68 Q1250.09 802.672 1250.09 807.001 Q1250.09 812.475 1247.03 815.722 Q1243.95 818.936 1238.79 818.936 Q1232.77 818.936 1229.72 814.926 Q1226.66 810.884 1226.66 802.895 L1226.66 794.683 L1226.09 794.683 Q1222.05 794.683 1219.85 797.357 Q1217.62 799.998 1217.62 804.804 Q1217.62 807.86 1218.36 810.756 Q1219.09 813.653 1220.55 816.326 L1215.14 816.326 Q1213.9 813.112 1213.3 810.088 Q1212.66 807.064 1212.66 804.2 Q1212.66 796.465 1216.67 792.646 Q1220.68 788.826 1228.83 788.826 Z" fill="#000000" fill-rule="nonzero" fill-opacity="1" /><path clip-path="url(#clip900)" d="M1203.4 770.971 L1213.52 770.971 L1213.52 758.908 L1218.07 758.908 L1218.07 770.971 L1237.42 770.971 Q1241.78 770.971 1243.02 769.793 Q1244.26 768.584 1244.26 764.923 L1244.26 758.908 L1249.17 758.908 L1249.17 764.923 Q1249.17 771.703 1246.65 774.281 Q1244.11 776.859 1237.42 776.859 L1218.07 776.859 L1218.07 781.156 L1213.52 781.156 L1213.52 776.859 L1203.4 776.859 L1203.4 770.971 Z" fill="#000000" fill-rule="nonzero" fill-opacity="1" /><path clip-path="url(#clip900)" d="M1213.52 751.205 L1213.52 745.349 L1249.17 745.349 L1249.17 751.205 L1213.52 751.205 M1199.64 751.205 L1199.64 745.349 L1207.06 745.349 L1207.06 751.205 L1199.64 751.205 Z" fill="#000000" fill-rule="nonzero" fill-opacity="1" /><path clip-path="url(#clip900)" d="M1217.62 719.281 Q1217.62 723.992 1221.32 726.729 Q1224.98 729.466 1231.37 729.466 Q1237.77 729.466 1241.46 726.761 Q1245.12 724.024 1245.12 719.281 Q1245.12 714.602 1241.43 711.865 Q1237.74 709.128 1231.37 709.128 Q1225.04 709.128 1221.35 711.865 Q1217.62 714.602 1217.62 719.281 M1212.66 719.281 Q1212.66 711.642 1217.62 707.282 Q1222.59 702.921 1231.37 702.921 Q1240.13 702.921 1245.12 707.282 Q1250.09 711.642 1250.09 719.281 Q1250.09 726.952 1245.12 731.312 Q1240.13 735.641 1231.37 735.641 Q1222.59 735.641 1217.62 731.312 Q1212.66 726.952 1212.66 719.281 Z" fill="#000000" fill-rule="nonzero" fill-opacity="1" /><path clip-path="url(#clip900)" d="M1836.95 63.9476 L1836.95 47.7034 L1823.58 47.7034 L1823.58 40.9789 L1845.05 40.9789 L1845.05 66.9452 Q1840.31 70.3075 1834.6 72.0494 Q1828.88 73.7508 1822.4 73.7508 Q1808.22 73.7508 1800.2 65.4869 Q1792.22 57.1826 1792.22 42.3968 Q1792.22 27.5705 1800.2 19.3066 Q1808.22 11.0023 1822.4 11.0023 Q1828.32 11.0023 1833.62 12.4606 Q1838.97 13.9189 1843.47 16.7545 L1843.47 25.464 Q1838.93 21.6156 1833.83 19.6712 Q1828.72 17.7268 1823.09 17.7268 Q1811.99 17.7268 1806.4 23.9246 Q1800.85 30.1225 1800.85 42.3968 Q1800.85 54.6305 1806.4 60.8284 Q1811.99 67.0263 1823.09 67.0263 Q1827.43 67.0263 1830.83 66.2971 Q1834.23 65.5274 1836.95 63.9476 Z" fill="#000000" fill-rule="nonzero" fill-opacity="1" /><path clip-path="url(#clip900)" d="M1880.29 49.7694 Q1871.26 49.7694 1867.77 51.8354 Q1864.29 53.9013 1864.29 58.8839 Q1864.29 62.8538 1866.88 65.2034 Q1869.51 67.5124 1874.01 67.5124 Q1880.21 67.5124 1883.94 63.1374 Q1887.7 58.7219 1887.7 51.4303 L1887.7 49.7694 L1880.29 49.7694 M1895.16 46.6907 L1895.16 72.576 L1887.7 72.576 L1887.7 65.6895 Q1885.15 69.8214 1881.34 71.8063 Q1877.54 73.7508 1872.03 73.7508 Q1865.06 73.7508 1860.93 69.8619 Q1856.83 65.9325 1856.83 59.3701 Q1856.83 51.7138 1861.94 47.825 Q1867.08 43.9361 1877.25 43.9361 L1887.7 43.9361 L1887.7 43.2069 Q1887.7 38.0623 1884.3 35.2672 Q1880.94 32.4315 1874.82 32.4315 Q1870.93 32.4315 1867.25 33.3632 Q1863.56 34.295 1860.16 36.1584 L1860.16 29.2718 Q1864.25 27.692 1868.1 26.9223 Q1871.94 26.1121 1875.59 26.1121 Q1885.43 26.1121 1890.3 31.2163 Q1895.16 36.3204 1895.16 46.6907 Z" fill="#000000" fill-rule="nonzero" fill-opacity="1" /><path clip-path="url(#clip900)" d="M1917.72 65.7705 L1917.72 89.8329 L1910.23 89.8329 L1910.23 27.2059 L1917.72 27.2059 L1917.72 34.0924 Q1920.07 30.0415 1923.63 28.0971 Q1927.24 26.1121 1932.22 26.1121 Q1940.49 26.1121 1945.63 32.6746 Q1950.82 39.2371 1950.82 49.9314 Q1950.82 60.6258 1945.63 67.1883 Q1940.49 73.7508 1932.22 73.7508 Q1927.24 73.7508 1923.63 71.8063 Q1920.07 69.8214 1917.72 65.7705 M1943.08 49.9314 Q1943.08 41.7081 1939.68 37.0496 Q1936.31 32.3505 1930.4 32.3505 Q1924.49 32.3505 1921.08 37.0496 Q1917.72 41.7081 1917.72 49.9314 Q1917.72 58.1548 1921.08 62.8538 Q1924.49 67.5124 1930.4 67.5124 Q1936.31 67.5124 1939.68 62.8538 Q1943.08 58.1548 1943.08 49.9314 Z" fill="#000000" fill-rule="nonzero" fill-opacity="1" /><polyline clip-path="url(#clip903)" style="stroke:#009af9; stroke-linecap:round; stroke-linejoin:round; stroke-width:4; stroke-opacity:1; fill:none" points="1417.52,160.256 1440.22,338.53 1462.92,719.905 1485.62,949.056 1508.32,1060.58 1531.02,1104.13 1553.72,1111.66 1576.42,1106.57 1599.12,1109.01 1621.82,1060.58 1644.52,1053.25 1667.22,1070.96 1689.92,1121.83 1712.62,1134.66 1735.32,1137.1 1758.02,1142.19 1780.72,1175.36 1803.42,1182.89 1826.12,1193.06 1848.82,1198.15 1871.52,1210.77 1894.22,1223.59 1916.92,1238.85 1939.62,1246.59 1962.32,1259.2 1985.02,1284.64 2007.72,1310.08 2030.42,1307.54 2053.12,1325.34 2075.82,1325.34 2098.52,1325.34 2121.22,1340.61 2143.92,1376.22 2166.62,1376.22 2189.32,1371.13 2212.02,1368.59 2234.72,1378.76 2257.42,1378.76 2280.12,1378.76 2302.82,1376.22 2325.52,1378.76 "/>
<polyline clip-path="url(#clip903)" style="stroke:#e26f46; stroke-linecap:round; stroke-linejoin:round; stroke-width:4; stroke-opacity:1; fill:none" points="1417.52,333.646 1440.22,333.646 1462.92,742.698 1485.62,1030.46 1508.32,1035.34 1531.02,1063.43 1553.72,1109.01 1576.42,1109.01 1599.12,1109.01 1621.82,1060.58 1644.52,1032.9 1667.22,989.757 1689.92,984.466 1712.62,1050.81 1735.32,1101.48 1758.02,1047.96 1780.72,1111.66 1803.42,1152.36 1826.12,1172.71 1848.82,1228.68 1871.52,1249.03 1894.22,1277.01 1916.92,1277.01 1939.62,1315.17 1962.32,1343.15 1985.02,1348.24 2007.72,1358.41 2030.42,1381.31 2053.12,1381.31 2075.82,1381.31 2098.52,1327.89 2121.22,1376.22 2143.92,1376.22 2166.62,1376.22 2189.32,1376.22 2212.02,1381.31 2234.72,1383.85 2257.42,1383.85 2280.12,1383.85 2302.82,1386.4 2325.52,1386.4 "/>
<path clip-path="url(#clip900)" d="M2119.38 322.316 L2320.67 322.316 L2320.67 166.796 L2119.38 166.796  Z" fill="#ffffff" fill-rule="evenodd" fill-opacity="1"/>
<polyline clip-path="url(#clip900)" style="stroke:#000000; stroke-linecap:round; stroke-linejoin:round; stroke-width:4; stroke-opacity:1; fill:none" points="2119.38,322.316 2320.67,322.316 2320.67,166.796 2119.38,166.796 2119.38,322.316 "/>
<polyline clip-path="url(#clip900)" style="stroke:#009af9; stroke-linecap:round; stroke-linejoin:round; stroke-width:4; stroke-opacity:1; fill:none" points="2130.07,218.636 2194.24,218.636 "/>
<path clip-path="url(#clip900)" d="M2212.34 202.629 L2212.34 209.99 L2221.11 209.99 L2221.11 213.3 L2212.34 213.3 L2212.34 227.374 Q2212.34 230.545 2213.2 231.448 Q2214.08 232.351 2216.74 232.351 L2221.11 232.351 L2221.11 235.916 L2216.74 235.916 Q2211.81 235.916 2209.93 234.087 Q2208.06 232.235 2208.06 227.374 L2208.06 213.3 L2204.93 213.3 L2204.93 209.99 L2208.06 209.99 L2208.06 202.629 L2212.34 202.629 Z" fill="#000000" fill-rule="nonzero" fill-opacity="1" /><path clip-path="url(#clip900)" d="M2241.74 213.971 Q2241.02 213.555 2240.16 213.37 Q2239.33 213.161 2238.31 213.161 Q2234.7 213.161 2232.76 215.522 Q2230.84 217.86 2230.84 222.258 L2230.84 235.916 L2226.55 235.916 L2226.55 209.99 L2230.84 209.99 L2230.84 214.018 Q2232.18 211.657 2234.33 210.522 Q2236.48 209.365 2239.56 209.365 Q2240 209.365 2240.54 209.434 Q2241.07 209.481 2241.72 209.596 L2241.74 213.971 Z" fill="#000000" fill-rule="nonzero" fill-opacity="1" /><path clip-path="url(#clip900)" d="M2257.99 222.883 Q2252.83 222.883 2250.84 224.064 Q2248.85 225.244 2248.85 228.092 Q2248.85 230.36 2250.33 231.703 Q2251.83 233.022 2254.4 233.022 Q2257.94 233.022 2260.07 230.522 Q2262.22 227.999 2262.22 223.832 L2262.22 222.883 L2257.99 222.883 M2266.48 221.124 L2266.48 235.916 L2262.22 235.916 L2262.22 231.981 Q2260.77 234.342 2258.59 235.476 Q2256.41 236.587 2253.27 236.587 Q2249.29 236.587 2246.92 234.365 Q2244.59 232.119 2244.59 228.369 Q2244.59 223.994 2247.5 221.772 Q2250.44 219.55 2256.25 219.55 L2262.22 219.55 L2262.22 219.133 Q2262.22 216.194 2260.28 214.596 Q2258.36 212.976 2254.86 212.976 Q2252.64 212.976 2250.54 213.508 Q2248.43 214.041 2246.48 215.106 L2246.48 211.17 Q2248.82 210.268 2251.02 209.828 Q2253.22 209.365 2255.3 209.365 Q2260.93 209.365 2263.71 212.282 Q2266.48 215.198 2266.48 221.124 Z" fill="#000000" fill-rule="nonzero" fill-opacity="1" /><path clip-path="url(#clip900)" d="M2275.26 209.99 L2279.52 209.99 L2279.52 235.916 L2275.26 235.916 L2275.26 209.99 M2275.26 199.897 L2279.52 199.897 L2279.52 205.291 L2275.26 205.291 L2275.26 199.897 Z" fill="#000000" fill-rule="nonzero" fill-opacity="1" /><path clip-path="url(#clip900)" d="M2309.98 220.268 L2309.98 235.916 L2305.72 235.916 L2305.72 220.407 Q2305.72 216.726 2304.28 214.897 Q2302.85 213.069 2299.98 213.069 Q2296.53 213.069 2294.54 215.268 Q2292.55 217.467 2292.55 221.263 L2292.55 235.916 L2288.27 235.916 L2288.27 209.99 L2292.55 209.99 L2292.55 214.018 Q2294.08 211.68 2296.14 210.522 Q2298.22 209.365 2300.93 209.365 Q2305.4 209.365 2307.69 212.143 Q2309.98 214.897 2309.98 220.268 Z" fill="#000000" fill-rule="nonzero" fill-opacity="1" /><polyline clip-path="url(#clip900)" style="stroke:#e26f46; stroke-linecap:round; stroke-linejoin:round; stroke-width:4; stroke-opacity:1; fill:none" points="2130.07,270.476 2194.24,270.476 "/>
<path clip-path="url(#clip900)" d="M2212.34 254.469 L2212.34 261.83 L2221.11 261.83 L2221.11 265.14 L2212.34 265.14 L2212.34 279.214 Q2212.34 282.385 2213.2 283.288 Q2214.08 284.191 2216.74 284.191 L2221.11 284.191 L2221.11 287.756 L2216.74 287.756 Q2211.81 287.756 2209.93 285.927 Q2208.06 284.075 2208.06 279.214 L2208.06 265.14 L2204.93 265.14 L2204.93 261.83 L2208.06 261.83 L2208.06 254.469 L2212.34 254.469 Z" fill="#000000" fill-rule="nonzero" fill-opacity="1" /><path clip-path="url(#clip900)" d="M2248.89 273.728 L2248.89 275.811 L2229.31 275.811 Q2229.59 280.209 2231.95 282.524 Q2234.33 284.816 2238.57 284.816 Q2241.02 284.816 2243.31 284.214 Q2245.63 283.612 2247.9 282.409 L2247.9 286.436 Q2245.6 287.408 2243.2 287.918 Q2240.79 288.427 2238.31 288.427 Q2232.11 288.427 2228.48 284.816 Q2224.86 281.205 2224.86 275.047 Q2224.86 268.682 2228.29 264.955 Q2231.74 261.205 2237.57 261.205 Q2242.8 261.205 2245.84 264.585 Q2248.89 267.941 2248.89 273.728 M2244.63 272.478 Q2244.59 268.983 2242.66 266.899 Q2240.77 264.816 2237.62 264.816 Q2234.05 264.816 2231.9 266.83 Q2229.77 268.844 2229.45 272.501 L2244.63 272.478 Z" fill="#000000" fill-rule="nonzero" fill-opacity="1" /><path clip-path="url(#clip900)" d="M2272.41 262.594 L2272.41 266.622 Q2270.6 265.696 2268.66 265.233 Q2266.72 264.77 2264.63 264.77 Q2261.46 264.77 2259.86 265.742 Q2258.29 266.714 2258.29 268.659 Q2258.29 270.14 2259.42 270.997 Q2260.56 271.83 2263.98 272.594 L2265.44 272.918 Q2269.98 273.89 2271.88 275.672 Q2273.8 277.432 2273.8 280.603 Q2273.8 284.214 2270.93 286.321 Q2268.08 288.427 2263.08 288.427 Q2261 288.427 2258.73 288.01 Q2256.48 287.617 2253.98 286.807 L2253.98 282.409 Q2256.35 283.635 2258.64 284.26 Q2260.93 284.862 2263.17 284.862 Q2266.18 284.862 2267.8 283.844 Q2269.42 282.802 2269.42 280.927 Q2269.42 279.191 2268.24 278.265 Q2267.09 277.339 2263.13 276.483 L2261.65 276.135 Q2257.69 275.302 2255.93 273.589 Q2254.17 271.853 2254.17 268.844 Q2254.17 265.186 2256.76 263.196 Q2259.35 261.205 2264.12 261.205 Q2266.48 261.205 2268.57 261.552 Q2270.65 261.899 2272.41 262.594 Z" fill="#000000" fill-rule="nonzero" fill-opacity="1" /><path clip-path="url(#clip900)" d="M2284.79 254.469 L2284.79 261.83 L2293.57 261.83 L2293.57 265.14 L2284.79 265.14 L2284.79 279.214 Q2284.79 282.385 2285.65 283.288 Q2286.53 284.191 2289.19 284.191 L2293.57 284.191 L2293.57 287.756 L2289.19 287.756 Q2284.26 287.756 2282.39 285.927 Q2280.51 284.075 2280.51 279.214 L2280.51 265.14 L2277.39 265.14 L2277.39 261.83 L2280.51 261.83 L2280.51 254.469 L2284.79 254.469 Z" fill="#000000" fill-rule="nonzero" fill-opacity="1" /></svg>
